<svg xmlns="http://www.w3.org/2000/svg" xmlns:xlink="http://www.w3.org/1999/xlink" width="124.964" height="36.875" viewBox="0 0 124.964 36.875"><defs><style>.a,.b,.d,.e,.f,.g,.h,.i,.j,.k{fill-rule:evenodd;}.b{fill:#a6a6a6;}.c,.d,.k{fill:#fff;}.e{fill:url(#a);}.f{fill:url(#b);}.g{fill:url(#c);}.h{fill:url(#d);}.i{opacity:0.2;}.j{opacity:0.12;}.k{opacity:0.25;}</style><linearGradient id="a" x1="2.472" y1="1.035" x2="2.361" y2="1.005" gradientUnits="objectBoundingBox"><stop offset="0" stop-color="#00a0ff"/><stop offset="0.007" stop-color="#00a1ff"/><stop offset="0.26" stop-color="#00beff"/><stop offset="0.512" stop-color="#00d2ff"/><stop offset="0.76" stop-color="#00dfff"/><stop offset="1" stop-color="#00e3ff"/></linearGradient><linearGradient id="b" x1="1.95" y1="1.879" x2="1.69" y2="1.879" gradientUnits="objectBoundingBox"><stop offset="0" stop-color="#ffe000"/><stop offset="0.409" stop-color="#ffbd00"/><stop offset="0.775" stop-color="orange"/><stop offset="1" stop-color="#ff9c00"/></linearGradient><linearGradient id="c" x1="1.926" y1="0.946" x2="1.835" y2="0.793" gradientUnits="objectBoundingBox"><stop offset="0" stop-color="#ff3a44"/><stop offset="1" stop-color="#c31162"/></linearGradient><linearGradient id="d" x1="1.856" y1="2.093" x2="1.897" y2="2.025" gradientUnits="objectBoundingBox"><stop offset="0" stop-color="#32a071"/><stop offset="0.068" stop-color="#2da771"/><stop offset="0.476" stop-color="#15cf74"/><stop offset="0.801" stop-color="#06e775"/><stop offset="1" stop-color="#00f076"/></linearGradient></defs><path class="a" d="M120.334,36.875H4.63A4.632,4.632,0,0,1,0,32.265V4.609A4.627,4.627,0,0,1,4.63,0h115.7a4.628,4.628,0,0,1,4.63,4.609V32.265A4.634,4.634,0,0,1,120.334,36.875Z"/><path class="b" d="M120.334.738a3.892,3.892,0,0,1,3.892,3.871V32.265a3.885,3.885,0,0,1-3.892,3.871H4.63A3.892,3.892,0,0,1,.738,32.265V4.609A3.885,3.885,0,0,1,4.63.738Zm0-.738H4.63A4.632,4.632,0,0,0,0,4.609V32.265a4.627,4.627,0,0,0,4.63,4.609h115.7a4.628,4.628,0,0,0,4.63-4.609V4.609A4.634,4.634,0,0,0,120.334,0Z"/><path class="c" d="M1682.1,277.261a2.806,2.806,0,0,1-2.094-.867,2.951,2.951,0,0,1-.846-2.115,2.887,2.887,0,0,1,.846-2.113,2.8,2.8,0,0,1,2.092-.867,2.834,2.834,0,0,1,2.094.867,3.061,3.061,0,0,1,0,4.225A2.782,2.782,0,0,1,1682.1,277.261Zm-24.83,0a2.909,2.909,0,0,1-2.1-.855,2.979,2.979,0,0,1,2.1-5.1,2.932,2.932,0,0,1,1.175.244,2.378,2.378,0,0,1,.894.639l.055.067-.623.612-.064-.076a1.771,1.771,0,0,0-1.446-.623,2,2,0,0,0-1.442.588,2.236,2.236,0,0,0,0,3.062,2.108,2.108,0,0,0,2.922,0,1.593,1.593,0,0,0,.423-.959h-2V274h2.855l.011.078a3.125,3.125,0,0,1,.042.432,2.588,2.588,0,0,1-.713,1.908A2.781,2.781,0,0,1,1657.27,277.261Zm33.015-.122h-.88l-2.7-4.315.023.777v3.536h-.881v-5.713h1.005l.028.044,2.536,4.065-.023-.775v-3.333h.89Zm-14.8,0h-.892v-4.855h-1.547v-.86h3.984v.86h-1.547v4.855Zm-3.166,0h-.89v-5.715h.89Zm-5,0h-.89v-4.855h-1.547v-.86h3.984v.86h-1.547Zm-3-.009h-3.411v-5.706h3.411v.86H1661.8v1.568h2.273v.851H1661.8v1.568h2.519Zm16.341-1.327a1.969,1.969,0,0,0,1.442.6,1.918,1.918,0,0,0,1.441-.6,2.266,2.266,0,0,0,0-3.044,1.972,1.972,0,0,0-1.441-.6,1.91,1.91,0,0,0-1.439.6,2.269,2.269,0,0,0,0,3.044Z" transform="translate(-1616.269 -265.063)"/><path class="d" d="M1671.652,687.354a3.922,3.922,0,1,0,3.933,3.922A3.86,3.86,0,0,0,1671.652,687.354Zm0,6.29a2.383,2.383,0,1,1,2.211-2.377A2.27,2.27,0,0,1,1671.652,693.644Zm-8.582-6.29a3.922,3.922,0,1,0,3.933,3.922A3.86,3.86,0,0,0,1663.071,687.354Zm0,6.29a2.383,2.383,0,1,1,2.212-2.377A2.27,2.27,0,0,1,1663.071,693.644Zm-10.212-5.092v1.66h3.984a3.5,3.5,0,0,1-.9,2.09,4.065,4.065,0,0,1-3.074,1.218,4.426,4.426,0,0,1,0-8.851,4.254,4.254,0,0,1,3,1.188l1.177-1.177a5.787,5.787,0,0,0-4.168-1.68,6.086,6.086,0,1,0,0,12.17,5.57,5.57,0,0,0,4.25-1.71,5.508,5.508,0,0,0,1.444-3.892,5.134,5.134,0,0,0-.092-1.034h-5.623S1652.859,688.552,1652.859,688.552Zm41.769,1.292a3.644,3.644,0,0,0-3.359-2.5,3.726,3.726,0,0,0-3.7,3.922,3.833,3.833,0,0,0,3.892,3.922,3.894,3.894,0,0,0,3.267-1.74l-1.331-.892a2.231,2.231,0,0,1-1.927,1.085,2,2,0,0,1-1.906-1.188l5.244-2.172S1694.628,689.844,1694.628,689.844Zm-5.347,1.31a2.152,2.152,0,0,1,2.048-2.285,1.512,1.512,0,0,1,1.455.83Zm-4.26,3.8h1.722V683.432h-1.722Zm-2.827-6.729h-.062a2.718,2.718,0,0,0-2.069-.881,3.922,3.922,0,0,0,0,7.837,2.71,2.71,0,0,0,2.069-.892h.062v.563c0,1.5-.8,2.3-2.09,2.3a2.174,2.174,0,0,1-1.977-1.393l-1.5.625a3.744,3.744,0,0,0,3.471,2.315c2.019,0,3.729-1.188,3.729-4.087V687.58H1682.2v.646Zm-1.977,5.419a2.385,2.385,0,0,1,0-4.752,2.2,2.2,0,0,1,2.09,2.386A2.178,2.178,0,0,1,1680.216,693.644Zm22.474-10.212h-4.117v11.522h1.722v-4.363h2.4a3.585,3.585,0,1,0,0-7.159Zm.051,5.55h-2.448v-3.954h2.448a1.978,1.978,0,1,1,0,3.954Zm10.632-1.648a3.243,3.243,0,0,0-3.073,1.761l1.527.635a1.637,1.637,0,0,1,1.568-.851,1.663,1.663,0,0,1,1.814,1.485v.122a3.858,3.858,0,0,0-1.793-.441c-1.648,0-3.32.9-3.32,2.591a2.663,2.663,0,0,0,2.857,2.54,2.424,2.424,0,0,0,2.191-1.126h.062v.892h1.66v-4.414C1716.865,688.471,1715.338,687.333,1713.373,687.333Zm-.216,6.311c-.563,0-1.352-.276-1.352-.984,0-.892.984-1.23,1.823-1.23a2.99,2.99,0,0,1,1.568.388A2.073,2.073,0,0,1,1713.157,693.644Zm9.763-6.065-1.977,5h-.062l-2.048-5h-1.853l3.073,6.986-1.752,3.883h1.793l4.729-10.869Zm-15.5,7.375h1.722V683.432h-1.722Z" transform="translate(-1608.844 -667.299)"/><path class="e" d="M400.521,299.462a1.868,1.868,0,0,0-.421,1.3v20.385a1.777,1.777,0,0,0,.43,1.29l.071.062,11.421-11.421v-.255L400.592,299.4Z" transform="translate(-390.902 -292.517)"/><path class="f" d="M922.109,638.385l-3.809-3.809v-.267l3.809-3.809.083.051,4.506,2.561c1.29.727,1.29,1.926,0,2.662l-4.506,2.561Z" transform="translate(-897.189 -616.005)"/><path class="g" d="M433.784,805.892,429.892,802,418.4,813.492a1.508,1.508,0,0,0,1.915.062l13.469-7.662" transform="translate(-408.781 -783.563)"/><path class="h" d="M433.784,294.44l-13.469-7.651a1.494,1.494,0,0,0-1.915.062l11.492,11.481Z" transform="translate(-408.781 -279.895)"/><path class="i" d="M434.092,967.7l-13.377,7.6a1.518,1.518,0,0,1-1.844.009l-.071.071.071.062a1.521,1.521,0,0,0,1.844-.009l13.469-7.651Z" transform="translate(-409.172 -945.453)"/><path class="j" d="M1088.1,803.2l-4.6,2.611.083.083,4.506-2.561a1.615,1.615,0,0,0,.963-1.331A1.658,1.658,0,0,1,1088.1,803.2Z" transform="translate(-1058.591 -783.563)"/><path class="k" d="M402.436,286.752l17.975,10.212a1.694,1.694,0,0,1,.963,1.2,1.615,1.615,0,0,0-.963-1.331l-17.975-10.212c-1.29-.738-2.336-.122-2.336,1.352v.133C400.1,286.628,401.146,286.023,402.436,286.752Z" transform="translate(-390.902 -279.724)"/></svg>