<svg xmlns="http://www.w3.org/2000/svg" width="124.451" height="36.875" viewBox="0 0 124.451 36.875"><defs><style>.a{fill:#a6a6a6;}.b{fill:#fff;}</style></defs><path class="a" d="M120.024,36.875H4.359A4.369,4.369,0,0,1,0,32.511V4.357A4.363,4.363,0,0,1,4.359,0H120.024a4.423,4.423,0,0,1,4.428,4.357V32.511a4.429,4.429,0,0,1-4.428,4.363Z"/><path d="M123.629,32.582a3.531,3.531,0,0,1-3.534,3.531H4.429A3.535,3.535,0,0,1,.89,32.582V4.425A3.54,3.54,0,0,1,4.429.89H120.093a3.535,3.535,0,0,1,3.534,3.535V32.582Z" transform="translate(-0.07 -0.07)"/><g transform="translate(11.792 5.731)"><path class="b" d="M28.773,19.2a5.344,5.344,0,0,1,2.545-4.484,5.473,5.473,0,0,0-4.311-2.33c-1.813-.191-3.572,1.085-4.5,1.085-.942,0-2.365-1.067-3.9-1.035a5.739,5.739,0,0,0-4.831,2.946c-2.089,3.616-.531,8.931,1.47,11.854,1,1.432,2.171,3.03,3.7,2.974,1.5-.062,2.058-.955,3.865-.955,1.791,0,2.317.955,3.878.919,1.608-.026,2.62-1.438,3.586-2.883a11.83,11.83,0,0,0,1.64-3.34A5.166,5.166,0,0,1,28.773,19.2Z" transform="translate(-12.792 -6.698)"/><path class="b" d="M26.629,9.987a5.26,5.26,0,0,0,1.2-3.77,5.358,5.358,0,0,0-3.464,1.792,5.006,5.006,0,0,0-1.235,3.63A4.426,4.426,0,0,0,26.629,9.987Z" transform="translate(-13.598 -6.217)"/></g><g transform="translate(39.096 16.594)"><path class="b" d="M52.767,30.464H50.674l-1.147-3.6H45.541l-1.092,3.6H42.41L46.359,18.2H48.8Zm-3.586-5.115-1.037-3.2q-.165-.491-.619-2.311h-.037q-.181.783-.583,2.311l-1.019,3.2Z" transform="translate(-42.41 -18.016)"/><path class="b" d="M63.94,26.207a5.027,5.027,0,0,1-1.22,3.567,3.566,3.566,0,0,1-2.712,1.165A2.712,2.712,0,0,1,57.5,29.683h-.037v4.66H55.494V24.8q0-1.419-.073-2.912h1.728l.11,1.4H57.3a3.5,3.5,0,0,1,5.6-.347A4.874,4.874,0,0,1,63.94,26.207Zm-2,.072a3.642,3.642,0,0,0-.583-2.13,2.012,2.012,0,0,0-1.711-.874,2.044,2.044,0,0,0-1.319.482,2.236,2.236,0,0,0-.773,1.266,2.573,2.573,0,0,0-.091.6V27.1a2.363,2.363,0,0,0,.592,1.63,1.962,1.962,0,0,0,1.538.665,2.012,2.012,0,0,0,1.728-.855A3.765,3.765,0,0,0,61.938,26.279Z" transform="translate(-43.427 -18.291)"/><path class="b" d="M74.977,26.207a5.023,5.023,0,0,1-1.221,3.567,3.563,3.563,0,0,1-2.711,1.165,2.709,2.709,0,0,1-2.511-1.256H68.5v4.66H66.532V24.8q0-1.419-.073-2.912h1.728l.11,1.4h.037a3.5,3.5,0,0,1,5.6-.347A4.887,4.887,0,0,1,74.977,26.207Zm-2,.072a3.642,3.642,0,0,0-.584-2.13,2.009,2.009,0,0,0-1.71-.874,2.046,2.046,0,0,0-1.32.482,2.235,2.235,0,0,0-.773,1.266,2.624,2.624,0,0,0-.091.6V27.1a2.371,2.371,0,0,0,.59,1.63,1.966,1.966,0,0,0,1.54.665,2.012,2.012,0,0,0,1.728-.855A3.765,3.765,0,0,0,72.975,26.279Z" transform="translate(-44.289 -18.291)"/><path class="b" d="M87.394,27.009a3.27,3.27,0,0,1-1.09,2.548,4.829,4.829,0,0,1-3.342,1.074,5.85,5.85,0,0,1-3.18-.764l.455-1.638a5.388,5.388,0,0,0,2.841.784,2.686,2.686,0,0,0,1.73-.5,1.638,1.638,0,0,0,.618-1.34,1.709,1.709,0,0,0-.51-1.257,4.739,4.739,0,0,0-1.693-.949Q80,23.762,80,21.446a3.113,3.113,0,0,1,1.129-2.479,4.452,4.452,0,0,1,3-.966,5.955,5.955,0,0,1,2.784.583l-.491,1.6a4.83,4.83,0,0,0-2.348-.564,2.377,2.377,0,0,0-1.619.51,1.457,1.457,0,0,0-.491,1.111,1.5,1.5,0,0,0,.563,1.2,6.366,6.366,0,0,0,1.785.947,6.055,6.055,0,0,1,2.33,1.492A3.116,3.116,0,0,1,87.394,27.009Z" transform="translate(-45.33 -18.001)"/><path class="b" d="M94.631,23.2H92.465v4.295q0,1.639,1.147,1.638a3.5,3.5,0,0,0,.873-.091l.054,1.492a4.453,4.453,0,0,1-1.528.218,2.358,2.358,0,0,1-1.821-.71,3.487,3.487,0,0,1-.655-2.385V23.194H89.244V21.719h1.291V20.1l1.93-.583v2.2h2.166Z" transform="translate(-46.069 -18.119)"/><path class="b" d="M104.957,26.243a4.853,4.853,0,0,1-1.165,3.349,4.16,4.16,0,0,1-3.241,1.347,3.956,3.956,0,0,1-3.1-1.292,4.7,4.7,0,0,1-1.156-3.258,4.805,4.805,0,0,1,1.192-3.367,4.125,4.125,0,0,1,3.212-1.311A4.04,4.04,0,0,1,103.826,23,4.65,4.65,0,0,1,104.957,26.243Zm-2.039.064a3.979,3.979,0,0,0-.527-2.1,1.941,1.941,0,0,0-1.764-1.058,1.971,1.971,0,0,0-1.8,1.058,4.055,4.055,0,0,0-.527,2.136,3.973,3.973,0,0,0,.527,2.1,2.009,2.009,0,0,0,3.549-.018A3.993,3.993,0,0,0,102.917,26.307Z" transform="translate(-46.62 -18.291)"/><path class="b" d="M112.22,23.621a3.413,3.413,0,0,0-.619-.054,1.857,1.857,0,0,0-1.6.784,2.945,2.945,0,0,0-.491,1.747v4.642h-1.964l.018-6.06q0-1.529-.074-2.785H109.2l.072,1.693h.054a3.025,3.025,0,0,1,.983-1.4,2.376,2.376,0,0,1,1.421-.474,3.156,3.156,0,0,1,.491.036v1.874Z" transform="translate(-47.495 -18.291)"/><path class="b" d="M121.49,25.9a4.61,4.61,0,0,1-.072.891h-5.9a2.567,2.567,0,0,0,.855,2,2.921,2.921,0,0,0,1.929.619,6.521,6.521,0,0,0,2.386-.419L121,30.355a7.376,7.376,0,0,1-2.966.547,4.3,4.3,0,0,1-3.232-1.21,4.47,4.47,0,0,1-1.174-3.249,5.068,5.068,0,0,1,1.093-3.331,3.767,3.767,0,0,1,3.093-1.419,3.3,3.3,0,0,1,2.9,1.419A4.784,4.784,0,0,1,121.49,25.9Zm-1.874-.51a2.67,2.67,0,0,0-.382-1.511,1.717,1.717,0,0,0-1.566-.82,1.865,1.865,0,0,0-1.564.8,2.933,2.933,0,0,0-.582,1.528h4.094Z" transform="translate(-47.975 -18.289)"/></g><g transform="translate(40.263 6.044)"><path class="b" d="M48.63,9.762a3.026,3.026,0,0,1-.975,2.45,3.879,3.879,0,0,1-2.566.76,11.9,11.9,0,0,1-1.413-.072V6.971a10.429,10.429,0,0,1,1.664-.125,3.587,3.587,0,0,1,2.388.689A2.783,2.783,0,0,1,48.63,9.762Zm-1.019.027a2.2,2.2,0,0,0-.559-1.619,2.2,2.2,0,0,0-1.633-.563,4.089,4.089,0,0,0-.778.063v4.507a5.1,5.1,0,0,0,.653.027,2.285,2.285,0,0,0,1.712-.617A2.47,2.47,0,0,0,47.611,9.789Z" transform="translate(-43.676 -6.579)"/><path class="b" d="M54.548,10.848a2.384,2.384,0,0,1-.572,1.646,2.043,2.043,0,0,1-1.592.662,1.942,1.942,0,0,1-1.525-.635,2.313,2.313,0,0,1-.567-1.6,2.36,2.36,0,0,1,.585-1.654,2.03,2.03,0,0,1,1.578-.643,1.987,1.987,0,0,1,1.539.634A2.294,2.294,0,0,1,54.548,10.848Zm-1,.031a1.965,1.965,0,0,0-.259-1.032.954.954,0,0,0-.867-.52.969.969,0,0,0-.886.52,1.992,1.992,0,0,0-.259,1.049,1.966,1.966,0,0,0,.259,1.032.975.975,0,0,0,.877.52.964.964,0,0,0,.867-.529A1.953,1.953,0,0,0,53.546,10.88Z" transform="translate(-44.193 -6.718)"/><path class="b" d="M62.231,8.719l-1.36,4.346h-.885l-.563-1.887a14.127,14.127,0,0,1-.349-1.4h-.018a10.277,10.277,0,0,1-.349,1.4l-.6,1.887h-.9L55.935,8.719h.993l.491,2.066q.178.733.295,1.395h.018q.108-.545.359-1.386l.617-2.074h.787l.591,2.03q.214.743.348,1.431h.027a13.669,13.669,0,0,1,.3-1.431l.527-2.03h.949Z" transform="translate(-44.634 -6.725)"/><path class="b" d="M67.875,13.057h-.966V10.568q0-1.15-.876-1.15a.872.872,0,0,0-.7.316,1.122,1.122,0,0,0-.268.745v2.578H64.1v-3.1q0-.572-.035-1.244h.849l.045.679h.027a1.4,1.4,0,0,1,.5-.525,1.633,1.633,0,0,1,.876-.244,1.387,1.387,0,0,1,1.011.394,1.913,1.913,0,0,1,.5,1.44Z" transform="translate(-45.269 -6.717)"/><path class="b" d="M71.006,12.9h-.965V6.556h.965Z" transform="translate(-45.736 -6.556)"/><path class="b" d="M76.9,10.848a2.384,2.384,0,0,1-.572,1.646,2.045,2.045,0,0,1-1.592.662,1.939,1.939,0,0,1-1.525-.635,2.313,2.313,0,0,1-.567-1.6,2.361,2.361,0,0,1,.585-1.654A2.03,2.03,0,0,1,74.8,8.623a1.989,1.989,0,0,1,1.54.634A2.294,2.294,0,0,1,76.9,10.848Zm-1,.031a1.966,1.966,0,0,0-.259-1.032.953.953,0,0,0-.866-.52.967.967,0,0,0-.886.52,1.992,1.992,0,0,0-.259,1.049,1.966,1.966,0,0,0,.259,1.032.975.975,0,0,0,.877.52.963.963,0,0,0,.866-.529A1.945,1.945,0,0,0,75.894,10.88Z" transform="translate(-45.939 -6.718)"/><path class="b" d="M82.028,13.057H81.16l-.072-.5h-.027a1.488,1.488,0,0,1-1.269.6,1.31,1.31,0,0,1-.992-.394,1.234,1.234,0,0,1-.34-.885,1.35,1.35,0,0,1,.667-1.216A3.459,3.459,0,0,1,81,10.25v-.081q0-.859-.9-.858a2.021,2.021,0,0,0-1.133.322L78.769,9a2.787,2.787,0,0,1,1.491-.375q1.7,0,1.705,1.8v1.6A6.788,6.788,0,0,0,82.028,13.057Zm-1-1.493v-.67q-1.6-.028-1.6.876a.655.655,0,0,0,.185.51.676.676,0,0,0,.472.17.976.976,0,0,0,.591-.2.825.825,0,0,0,.35-.684Z" transform="translate(-46.394 -6.718)"/><path class="b" d="M87.933,12.9h-.857l-.045-.7H87a1.444,1.444,0,0,1-1.4.8,1.636,1.636,0,0,1-1.305-.617,2.4,2.4,0,0,1-.518-1.6,2.52,2.52,0,0,1,.563-1.708,1.732,1.732,0,0,1,1.341-.608,1.3,1.3,0,0,1,1.224.59h.018V6.556H87.9v5.169Q87.9,12.36,87.933,12.9Zm-1-1.833v-.725a1.423,1.423,0,0,0-.027-.3,1.1,1.1,0,0,0-.349-.585.95.95,0,0,0-.646-.237.991.991,0,0,0-.85.43,1.841,1.841,0,0,0-.31,1.1,1.716,1.716,0,0,0,.3,1.046.994.994,0,0,0,.844.429.931.931,0,0,0,.763-.358A1.191,1.191,0,0,0,86.932,11.063Z" transform="translate(-46.81 -6.556)"/><path class="b" d="M96.887,10.848a2.384,2.384,0,0,1-.572,1.646,2.042,2.042,0,0,1-1.592.662,1.945,1.945,0,0,1-1.525-.635,2.313,2.313,0,0,1-.567-1.6,2.36,2.36,0,0,1,.585-1.654A2.031,2.031,0,0,1,94.8,8.623a1.985,1.985,0,0,1,1.538.634A2.294,2.294,0,0,1,96.887,10.848Zm-1,.031a1.966,1.966,0,0,0-.259-1.032.955.955,0,0,0-.867-.52.971.971,0,0,0-.886.52,1.992,1.992,0,0,0-.259,1.049,1.966,1.966,0,0,0,.259,1.032.987.987,0,0,0,1.744-.009A1.961,1.961,0,0,0,95.886,10.88Z" transform="translate(-47.501 -6.718)"/><path class="b" d="M102.56,13.057H101.6V10.568q0-1.15-.877-1.15a.869.869,0,0,0-.7.316,1.117,1.117,0,0,0-.268.745v2.578h-.967v-3.1q0-.572-.034-1.244H99.6l.045.679h.027a1.41,1.41,0,0,1,.5-.525,1.636,1.636,0,0,1,.877-.244,1.386,1.386,0,0,1,1.01.394,1.909,1.909,0,0,1,.5,1.44Z" transform="translate(-47.98 -6.717)"/><path class="b" d="M109.712,9.351h-1.064v2.111c0,.537.189.8.563.8a1.7,1.7,0,0,0,.431-.045l.025.733a2.171,2.171,0,0,1-.75.108,1.155,1.155,0,0,1-.893-.348,1.7,1.7,0,0,1-.323-1.172V9.351h-.635V8.627h.635v-.8l.947-.286V8.626h1.064v.725Z" transform="translate(-48.629 -6.633)"/><path class="b" d="M115.164,12.9H114.2V10.425q0-1.168-.875-1.169a.922.922,0,0,0-.922.678,1.214,1.214,0,0,0-.045.348v2.613h-.965V6.556h.965V9.175h.018a1.46,1.46,0,0,1,1.305-.714,1.346,1.346,0,0,1,.994.394,1.979,1.979,0,0,1,.491,1.457Z" transform="translate(-48.967 -6.556)"/><path class="b" d="M120.88,10.678a2.332,2.332,0,0,1-.036.438h-2.9a1.267,1.267,0,0,0,.419.984,1.439,1.439,0,0,0,.949.3,3.2,3.2,0,0,0,1.172-.206l.151.671a3.638,3.638,0,0,1-1.458.268,2.106,2.106,0,0,1-1.587-.595,2.191,2.191,0,0,1-.576-1.6,2.487,2.487,0,0,1,.537-1.636,1.848,1.848,0,0,1,1.519-.7,1.616,1.616,0,0,1,1.421.7A2.32,2.32,0,0,1,120.88,10.678Zm-.922-.25a1.3,1.3,0,0,0-.187-.742.844.844,0,0,0-.769-.4.917.917,0,0,0-.769.394,1.462,1.462,0,0,0-.287.751Z" transform="translate(-49.407 -6.717)"/></g></svg>