<svg xmlns="http://www.w3.org/2000/svg" width="106.235" height="36.459" viewBox="0 0 106.235 36.459"><defs><style>.a{fill:#0faaa9;}</style></defs><path class="a" d="M442.234,572.149a4.908,4.908,0,0,0-1.045.012c-.77.191-.947-.567-1.4-.857-.318-.2-.485-.629-.765-.912-.056-.056-.334.06-.475.15s-.225.271-.362.374c-.513.383-1.031.762-1.565,1.115a1.364,1.364,0,0,1-.5.111c-.747.13-1.582-.191-2.229.509-.118.128-.538.027-.8-.039-.441-.111-.865-.286-1.3-.424-.473-.149-1.059.2-1.415-.55-.177-.373-.9-.466-1.333-.746a4.18,4.18,0,0,1-1.092-1.224c-.429-.612-.321-1.462-1-1.939-.16-.112-.1-.526-.155-.8-.11-.567.2-1.254-.513-1.66-.1-.06-.072-.386-.073-.59-.007-1.26-.018-2.52,0-3.779.007-.453-.105-.9.425-1.279.235-.165.084-.827.186-1.245a6.414,6.414,0,0,1,.435-1.028c.038-.087.129-.171.125-.252-.037-.838.519-1.235,1.1-1.7a13.033,13.033,0,0,0,1.43-1.593.6.6,0,0,1,.315-.147c.374-.075.845.053.951-.541.012-.063.373-.088.572-.088,1.542,0,3.084-.01,4.626.011.355,0,.71-.047.97.42.121.217.725.165,1.148.242a3.2,3.2,0,0,0,.079-.461c-.012-2.648-.018-5.3-.049-7.945a1.469,1.469,0,0,0-1.581-1.551c-.871-.021-1.742,0-2.614,0l-.155-.208c.16-.147.318-.42.48-.422,2.258-.028,4.518-.019,6.6-.019,1.245,1.506.981,3.121.982,4.681q.011,11.65,0,23.3ZM438.573,556.1c-.642-1.4-1.517-1.215-2.3-1.308-.063-.007-.123-.077-.176-.128-.384-.363-1.995-.651-2.221-.267-.408.694-1.308.283-1.738,1.042-.289.511-1.07.758-1.064,1.549,0,.1-.007.271-.057.289-.744.282-.444.945-.539,1.456-.06.324.026.867-.134.947-.586.29-.429.772-.437,1.2-.022,1.259-.016,2.518,0,3.776a2.171,2.171,0,0,0,.189.7c.1.266.383.557.328.771-.273,1.076.74,1.8.7,2.8a.212.212,0,0,0,.072.127c.367.369.723.752,1.111,1.1.3.27.672.731.964.7,1.181-.138,2.509.672,3.547-.486.051-.056.2-.016.3-.037a1.717,1.717,0,0,0,1.41-1.64c.037-2.055.039-4.11.046-6.165C438.578,560.216,438.573,557.905,438.573,556.1Z" transform="translate(-426.191 -543.091)"/><path class="a" d="M500.591,589.254H496.91v-.922q0-10.685-.006-21.37c0-.5.192-1.051-.448-1.407-.177-.1-.147-.567-.186-.746-1.043-1.221-2.393-.751-3.621-.87a2.118,2.118,0,0,1-.45-.089c-.059-.019-.1-.107-.31-.361a20.94,20.94,0,0,1,4.163-.156c1.307-.021,2.663-.227,3.817.692l.34,1.162c.667-.619,1.236-1.159,1.825-1.68a.974.974,0,0,1,.428-.134c.51-.11,1.1.11,1.481-.531.1-.177.676-.09,1.034-.1.514-.013,1.029-.024,1.542.006.373.021.859-.161,1,.439.012.052.179.065.273.1.644.238,1.3.448,1.925.731a1.374,1.374,0,0,1,.609.6c.428.852,1.6,1.263,1.447,2.471-.024.193.246.411.347.633a2.883,2.883,0,0,1,.224.683c.116.669-.194,1.437.533,1.966.121.088.063.441.064.671.006.951.044,1.906-.018,2.853a5.868,5.868,0,0,1-.408,1.22,4.129,4.129,0,0,0-.136.74c-.054.477.144,1.04-.484,1.31a.236.236,0,0,0-.071.209c.214.919-.606,1.487-.8,2.282-.09.373-.638.659-1.015.934-.454.331-.95.6-1.421.912-.1.065-.156.238-.253.259-1.11.233-2.224.449-3.339.661-.122.023-.315.037-.374-.032-.654-.769-1.56-.408-2.351-.548a1.362,1.362,0,0,1-.408-.131c-.355-.192-.7-.4-1.049-.605l-.224.189v7.961Zm.058-9.4c.495.137.881.219,1.247.354.26.1.488.371.738.381,1,.042,2.005.022,3.008,0a.85.85,0,0,0,.5-.224c.311-.284.556-.647.886-.9.543-.417,1.088-.8,1.038-1.6-.006-.1.02-.274.064-.285.739-.19.461-.808.535-1.266.056-.353-.077-.893.113-1.04.675-.52.36-1.213.481-1.825.376-1.909-.621-3.658-.637-5.52,0-.072-.032-.2-.067-.208-.641-.114-.473-.634-.512-1.033a1.775,1.775,0,0,0-1.324-1.531c-.145-.036-.407-.053-.417-.112-.127-.72-.7-.463-1.1-.484-.717-.037-1.439,0-2.159.022-.151,0-.385-.009-.439.076-.461.72-1.412.711-1.96,1.415Z" transform="translate(-458.653 -552.795)"/><path class="a" d="M466.539,573.187a13.555,13.555,0,0,0,.038,2.594,8.16,8.16,0,0,0,.929,1.893,1.125,1.125,0,0,1,.157.331c.131,1.051,1.1,1.407,1.664,2.094.706.854,1.544.488,2.326.555a9.82,9.82,0,0,0,2.539-.066,3.812,3.812,0,0,0,1.446-.812c.3-.221.446-.735.752-.832.684-.217.524-.887.835-1.294a9.137,9.137,0,0,1,.9.606.424.424,0,0,1,.022.416c-.733.677-1.483,1.337-2.24,1.988-.46.4-.935.776-1.417,1.144-.089.067-.245.044-.369.066-.55.1-1.113-.043-1.6.51-.223.253-.929.093-1.417.1-.54,0-1.333.2-1.572-.074-.685-.785-1.86-.12-2.484-1.057-.271-.407-1.041-.448-1.5-.777a4.97,4.97,0,0,1-.882-1.072c-.167-.218-.32-.448-.473-.677a.923.923,0,0,1-.159-.31c-.077-.39.135-.911-.525-1.024-.057-.01-.056-.329-.089-.5-.089-.476.112-1.057-.527-1.339-.084-.037-.075-.331-.075-.507-.006-1.672-.017-3.344.009-5.015,0-.226.2-.45.319-.67.034-.063.156-.116.149-.159-.16-.959.711-1.644.7-2.524-.011-.743.6-1.005.906-1.486a6.17,6.17,0,0,1,1.048-1c.035-.033.039-.111.077-.129.588-.273,1.182-.536,1.77-.81.227-.106.436-.254.667-.35a2.079,2.079,0,0,1,.709-.207c.951-.022,1.9-.028,2.854.011.23.009.447.223.677.327a1.273,1.273,0,0,0,.541.191,2.216,2.216,0,0,1,2.023,1.065.487.487,0,0,0,.257.145c.827.216,1.08.964,1.575,1.509.51.562.2,1.464.986,1.785.079.033.1.279.1.427.007,1.618,0,3.236,0,4.942Zm-.008-1.835h8.509a3.206,3.206,0,0,0-.411-2.131c-.379-.69.205-1.755-.693-2.372.288-1.111-.912-1.028-1.344-1.557a2.15,2.15,0,0,0-2.243-.682c-.405.12-.754.431-1.16.546-.807.228-1.432.582-1.5,1.519-.007.1-.013.252-.072.285-.955.529-.329,1.707-1.031,2.437C466.256,569.74,466.531,570.668,466.531,571.351Z" transform="translate(-444.286 -552.813)"/><path class="a" d="M583.7,573.143c-4.116.014-8.17-.011-12.256.152.823.913.42,1.915.557,2.815.048.318-.13.768.433.826.039,0,.108.076.1.1-.234.815.631,1.182.774,1.875.08.387.6.678.906,1.024.94,1.058,2.2.577,3.327.675a9.132,9.132,0,0,0,1.846-.063,2.067,2.067,0,0,0,.688-.378c.081-.048.152-.15.233-.156.789-.054,1.1-.738,1.627-1.133.5-.378.523-.886.712-1.246l.766.972a9.389,9.389,0,0,1-1.534,1.769c-.773.576-1.349,1.6-2.55,1.459-.1-.012-.258-.023-.3.032-.77,1.029-1.866.394-2.8.541a5.224,5.224,0,0,1-1.537-.022,3.04,3.04,0,0,1-.856-.409c-.042-.021-.079-.1-.1-.095-.8.2-1.226-.6-1.917-.741a2.591,2.591,0,0,1-1.014-.729,15.158,15.158,0,0,1-1.1-1.137,1.042,1.042,0,0,1-.141-.408c-.089-.315.038-.767-.508-.789a.078.078,0,0,1-.055-.043c-.232-.714-.5-1.421-.683-2.147-.2-.777.062-1.574-.468-2.4a1.949,1.949,0,0,1,.247-2.276c.172-.182.1-.579.174-.87.187-.756-.352-1.7.593-2.273.093-.057.01-.356.076-.515a5.02,5.02,0,0,1,.372-.613.922.922,0,0,0,.186-.371c.022-.728.586-1.038,1.05-1.435.218-.186.384-.432.605-.612.473-.385.966-.744,1.45-1.115.038-.029.075-.095.108-.092,1.013.092,1.745-.926,2.831-.669a14.8,14.8,0,0,0,1.844.063,2.936,2.936,0,0,1,.812.368,1.038,1.038,0,0,0,.4.153,2.4,2.4,0,0,1,2.163,1.132c.064.094.283.075.423.128.188.071.458.111.538.252.311.549.55,1.138.835,1.7.335.665.7,1.316,1.031,1.983a1.212,1.212,0,0,1,.108.52C583.7,570.315,583.7,571.675,583.7,573.143Zm-12.1-1.97c.482.949,1.5.686,2.417.693,1.284.011,2.568,0,3.852,0,2.227,0,2.115-.006,2.226-2.206.059-1.165-.636-2.04-.723-3.1,0-.058-.08-.115-.133-.162-.332-.294-.689-.565-1-.883a2.473,2.473,0,0,0-1.678-1,4.053,4.053,0,0,0-2.825,1.139,2.364,2.364,0,0,0-1.167,1.948c0,.1-.009.254-.07.291-.718.431-.435,1.155-.543,1.767C571.883,570.118,571.751,570.565,571.6,571.173Z" transform="translate(-496.058 -552.736)"/><path class="a" d="M613.943,563.994c.594,0,1.229-.012,1.863.01.124,0,.245.132.367.2-.084.1-.173.205-.251.314-.313.43-.626.858-.933,1.292a7.134,7.134,0,0,1-.812,1.149,3.2,3.2,0,0,0-1.091,1.425,2.358,2.358,0,0,1-.653,1.07,2.856,2.856,0,0,0-1.2,1.681c-.053.317-.44.614-.733.847a1.215,1.215,0,0,0-.024,1.876,2.43,2.43,0,0,1,.644.8c.31.6.529,1.24.846,1.831.306.572.694,1.1,1.036,1.653.275.444.523.9.8,1.343.242.378.438.886.792,1.066.482.245.762.959,1.474.72.232.624.79.549,1.289.629.071.011.187.291.143.36a.567.567,0,0,1-.4.241c-.8.024-1.6.019-2.392.014-.566,0-1.132-.048-1.7-.031a2.05,2.05,0,0,1-1.723-1.05,5.01,5.01,0,0,0-.7-.713c-.318-.275-.681-.5-.984-.79-.106-.1-.062-.344-.141-.494a5.989,5.989,0,0,0-.44-.662c-.04-.057-.157-.116-.148-.145.225-.718-.464-1.046-.685-1.57a6.367,6.367,0,0,0-.815-1.157l.156-.169H606.5l.164.14-4.7,6.594h-1.7c0-.186-.066-.445.011-.5a2.29,2.29,0,0,0,1.219-1.77c.013-.2.345-.387.549-.556.721-.593.766-1.673,1.675-2.183.4-.224.561-.867.834-1.317.331-.545.674-1.083,1-1.632a5.658,5.658,0,0,1,.261-.568,2.12,2.12,0,0,1,.455-.352c-.41-.679-1.219-1.1-1.147-2.019-.779-.2-.327-1.215-1.081-1.552-.382-.171-.512-.9-.763-1.373a3.305,3.305,0,0,0-.258-.388c-.1-.141-.292-.267-.308-.414-.073-.7-.607-1.034-1.059-1.443a1.838,1.838,0,0,1-.524-.6c-.3-.782-1.359-.362-1.7-1.108-.061-.134-.482-.081-.717-.167-.128-.046-.214-.2-.319-.31.1-.081.208-.232.313-.232,1.594-.008,3.19-.041,4.779.044.363.019.736.424,1.048.713a21.451,21.451,0,0,1,1.679,1.706,9.8,9.8,0,0,1,.766,1.224c.139.22.3.427.445.641.053.077.148.161.144.238-.047,1.008,1.024,1.333,1.312,2.141a.535.535,0,0,0,.476.049c.279-.285.492-.634.747-.945a7.17,7.17,0,0,1,.588-.631c.677-.65.756-1.745,1.665-2.226.084-.044.135-.208.147-.323.08-.709.617-1.064,1.068-1.518C613.792,564.873,613.805,564.425,613.943,563.994Z" transform="translate(-511.274 -553.411)"/><path class="a" d="M547.066,543.225c2.079,0,4.16-.038,6.237.035.375.013.746.467,1.1.744.585.461.442,1.228.7,1.785.946,2.024.4,4.115.431,6.157.092,6.406.034,12.813.034,19.22v1h-3.661V571.3c0-7.925-.036-15.85.037-23.775a11.065,11.065,0,0,0-.751-2.789c-.015-.066-.086-.164-.14-.169-.841-.082-1.41-.985-2.378-.744a3.554,3.554,0,0,1-1.305-.015c-.163-.023-.3-.254-.444-.39Z" transform="translate(-485.847 -543.152)"/><path class="a" d="M532.461,563.953c2.131,0,4.213-.035,6.291.033.364.012.754.41,1.06.7.487.468.47,1.163.691,1.743.954,2.515.32,5.087.442,7.622.124,2.565.012,5.142.04,7.713.006.515-.2.709-.653.714-.971.01-1.943,0-3.017,0v-.948c0-4.679,0-9.359-.021-14.039,0-.41.212-.969-.467-1.131-.041-.01-.082-.131-.08-.2.026-.664-.488-.763-.9-1.113-.954-.809-1.946-.36-2.907-.482C532.549,564.524,532.284,564.494,532.461,563.953Z" transform="translate(-478.672 -553.395)"/></svg>