<svg xmlns="http://www.w3.org/2000/svg" width="75.883" height="80.183" viewBox="0 0 75.883 80.183"><defs><style>.a{fill:#0faaa9;}</style></defs><path class="a" d="M1455.79,516.67c.3-.957-.155-1.613-1.153-2.231l-.71,3.661a9.125,9.125,0,0,1-.306-6.439l-.309-.178-1.539,1.971c-.427-1.03.439-2.25-.089-3.875a17.214,17.214,0,0,1,8.978-7.223l-.879-.612,9.847-3.145-.635-.462c4.662-.336,9.305-1.644,12.822,2.76l.745-.7c.449,2.8,1.741,5.435.04,7.922a24.006,24.006,0,0,1-12.3,9.325,4.094,4.094,0,0,1-.78.078l.938-1.13c-4.155.571-8.067,1.193-12.048-.2.2,2.4.4,4.708.614,7.2l-1.432-.29a44.339,44.339,0,0,0,2.312,15.978c-.142-.935-.284-1.871-.459-3.029,2.1,1.431,4.141,2.277,6.354.74l-.908-2.076a14.545,14.545,0,0,0,3.8,1.1,15.582,15.582,0,0,0,3.916-.973l-.749,1.8c1.861,1.656,4.082,1.4,7.023-1-.21,1.242-.4,2.366-.591,3.49l.326.041a60.43,60.43,0,0,0,2.124-18.763l-.708.916c-1.913-2.954-.994-7.144.684-9.513.195-.275.779-.273,1.182-.4l-.063.027.071,0,.109.423-.015.107.091.058.283.4-.1.048.041.107v6.448a5.687,5.687,0,0,1,.534-.289c.849-.386,1.422-.066,1.42.818-.006,2.685-.12,5.37-.158,8.055-.006.446.238.9.227,1.341a11.675,11.675,0,0,1-.267,1.664l-1.441-.552c.024.31.046.7.084,1.085.4,4.013,1.045,8.02,1.14,12.04a17.478,17.478,0,0,1-2.586,10.038l-.567-.431a7.99,7.99,0,0,1-4.285,3.6,19.756,19.756,0,0,0-2.953,1.931l-.752-1.5-1.885,1.692-2.97-2.986-.329.245.455,1.453-3.2-.582.333.779c-2.076.064-3.359-.922-5.541-4.273l-.527.6c-1.654-1.928-1.9-4.362-2.489-6.674l-.654.229a2.688,2.688,0,0,1-.1-.507c.082-4.636.2-9.271.226-13.908a7.555,7.555,0,0,0-.6-2.258c-.439-1.332-1.038-2.625-1.344-3.985a36.441,36.441,0,0,1-.7-4.967,7.572,7.572,0,0,1,.371-2c.591.25,1.184.5,1.772.754a4.918,4.918,0,0,1,.55.389,6.3,6.3,0,0,1-.253-4.2Zm12.393,35.573a25.419,25.419,0,0,1,1.794-2.744,6.837,6.837,0,0,0,1.8-4.608l-.924,1.241c.069-.674.116-1.142.174-1.712l-2.043,1.446,1.42-2.338-3.659-.779L1465,544.81l.485-1.53c-2.385,2.076-2.011,7.229.416,9.489.108-1.246.229-2.647.351-4.048l.394.013a6.061,6.061,0,0,0,.739,4.645c.133-.713.226-1.208.35-1.871Zm1.834.082c1.983.038,1.321,1.664,2.159,2.557l2.4-2.157-.2-.224-.745.278,2.8-4.42-.415-.3-1.117,1.493-.268-.209c1.046-1.605,2.25-3.144,2.466-5.228h-1.42c-1.154,1.328-2.116.495-3.138.134a6.591,6.591,0,0,1-1.628,5.316C1470.329,550.26,1470.292,551.409,1470.017,552.325Zm-6.574-8.442c-.058,0-.233-.041-.261.006a33.634,33.634,0,0,0-2.622,4.525c-.594,1.467,1,5.2,2.786,5.781l-1.084-2.537.13-.025,2.966,3.571.3-.179C1463.747,551.55,1461.728,548.1,1463.443,543.883Zm-3.672-31.065c2.962,3.372,8.391,3.655,10.066,2l-5.341-2.2-.1.2,1.143,1.228-.126.184-3.788-1.266.961.793-.1.185Zm15.088,28.788c2,.585,3.761.932,5.207.2l-7.724-1.62.276.5-2.493-1.024c1.672,2.269,3.75,3.249,5.4,2.685Zm-9.262-2.184a10.429,10.429,0,0,1-7.015,2.077l.045.327h4.563l-.251.682a6.294,6.294,0,0,0,5.21-3.109l-2.551,1.115Zm-3.469,4.83-3.7-.289-.955,1.625,1.733-.3c-.1.879-.231,1.593-.26,2.311-.027.66.054,1.325.087,1.988,1.223-3.691,1.8-4.633,2.72-4.042Zm15.73,1.2.277-.208c.269.169.671.275.785.516.613,1.3,1.153,2.639,1.658,3.821v-4.272l1.638.279-1.231-1.936-.172.368-3.264.217Z" transform="translate(-1431.975 -497.694)"/><path class="a" d="M1481.034,629.921c0-.986.008-1.972,0-2.957-.007-.693.3-1.025,1.012-1a18.731,18.731,0,0,0,1.928,0,3.208,3.208,0,0,1,3.493,2.048,4.733,4.733,0,0,1-.744,4.939c-.756.752-4.4,1.343-5.26.775a1.384,1.384,0,0,1-.409-.978C1481,631.809,1481.034,630.864,1481.034,629.921Zm1.5,2.631c1.3-.149,2.687.446,3.427-1.027a3.3,3.3,0,0,0-.124-3.421c-.818-1.254-2.088-.775-3.3-.766Z" transform="translate(-1446.488 -561.069)"/><path class="a" d="M1541.021,627.269c-1.174,0-2.062.058-2.937-.03-.335-.033-.636-.4-.953-.616.308-.217.607-.6.926-.621,1.324-.071,2.656-.057,3.983-.014.341.011.847.156.965.395a1.248,1.248,0,0,1-.27,1.007c-1.232,1.641-2.508,3.248-3.983,5.142a30.311,30.311,0,0,1,3.086.032c.4.043.76.444,1.138.682-.369.2-.729.545-1.109.568-1.238.074-2.485.063-3.726.013a6.862,6.862,0,0,1-1.413-.36,5.716,5.716,0,0,1,.542-1.329C1538.431,630.57,1539.647,629.043,1541.021,627.269Z" transform="translate(-1474.013 -561.068)"/><path class="a" d="M1455.031,632.112c-1-.195-1.814-.043-2.136,1.159-.064.239-.559.362-.855.539-.086-.328-.332-.719-.232-.975.841-2.15,1.715-4.289,2.646-6.4.339-.768,1.07-.758,1.416.02q1.381,3.106,2.616,6.275c.109.281-.172.714-.273,1.076-.3-.175-.8-.3-.855-.534C1457.029,631.954,1456.078,631.984,1455.031,632.112Zm.083-3.971-1.034,2.477h2.081Z" transform="translate(-1432.04 -561.024)"/><path class="a" d="M1512.306,627.277v1.873a9.947,9.947,0,0,1,1.8.025,6.192,6.192,0,0,1,1.366.614,6.74,6.74,0,0,1-1.413.672,8.324,8.324,0,0,1-1.719.026v2.052a26.51,26.51,0,0,1,2.664.03c.338.034.642.4.961.622-.307.218-.613.438-.922.652-.029.02-.084.006-.127.005-5.035-.105-3.972.8-4.092-3.825-.026-.985.016-1.972-.01-2.957-.019-.743.256-1.119,1.046-1.1,1.027.029,2.062-.051,3.083.037.358.031.684.423,1.025.65a3.486,3.486,0,0,1-1.1.591A23.093,23.093,0,0,1,1512.306,627.277Z" transform="translate(-1461.202 -561.074)"/><path class="a" d="M1492.266,551.61l3.586.8-.051.512-5.274,1.134,1.816.927-.019.161-2.854-.581-.293.989c-.057-.046-.152-.084-.156-.132-.4-4.508.182-5.328,4.722-5.765,1.175-.113,2.425.546,3.615,1C1495.5,550.621,1493.565,549.945,1492.266,551.61Z" transform="translate(-1450.388 -523.365)"/><path class="a" d="M1471.8,554.919l1.949-.916-5.355-1.138-.053-.518,3.73-.826c-.6-.332-1.306-.7-1.982-1.107a2.8,2.8,0,0,1-.531-.575c.239-.113.517-.368.711-.316a43.507,43.507,0,0,1,4.289,1.319,1.648,1.648,0,0,1,.713,1.222,11.294,11.294,0,0,1-.23,3.477l-.313-1.031-2.9.576Z" transform="translate(-1440.222 -523.3)"/><path class="a" d="M1428.788,627.254v1.969a14.837,14.837,0,0,1,2.155.032c.323.049.594.439.889.674-.289.2-.56.534-.87.575a17.929,17.929,0,0,1-2.222.027,17.988,17.988,0,0,1-.032,2.381c-.045.321-.448.592-.688.886-.242-.288-.685-.569-.695-.864-.061-2.016-.073-4.036.011-6.051a1.315,1.315,0,0,1,.912-.88,18.827,18.827,0,0,1,3.214-.019c.3.019.577.357.865.548-.289.24-.558.653-.87.689A24.021,24.021,0,0,1,1428.788,627.254Z" transform="translate(-1419.931 -561.055)"/><path class="a" d="M1412.757,611.419l21.365-.5c.373.85.113,1.124-.722,1.1q-10.3-.259-20.6-.484Z" transform="translate(-1412.757 -553.641)"/><path class="a" d="M1541.8,611.549c-6.863.157-13.725.323-20.588.443-.287.005-.581-.421-.872-.647l.224-.416,21.191.483Z" transform="translate(-1465.913 -553.645)"/><path class="a" d="M1500.565,652.079a1.748,1.748,0,0,0-2.937-.042l1.464-3.515Z" transform="translate(-1454.693 -572.22)"/><path class="a" d="M1528.168,650.784a1.7,1.7,0,1,1,3.4-.053,1.735,1.735,0,0,1-1.679,1.882A1.709,1.709,0,0,1,1528.168,650.784Zm3.323.259-.018-.613c-.562-.381-1.1-1.022-1.693-1.084-.907-.095-1.325.673-1.281,1.55.042.834.569,1.5,1.366,1.354C1530.462,652.138,1530.953,651.466,1531.491,651.043Z" transform="translate(-1469.783 -572.453)"/><path class="a" d="M1458.859,650.823c.076-.433.145-.828.214-1.222l.167.015V652.6l-.165.019-.186-1.277c-1.758-.417-1.868-.354-2.228,1.188v-2.913l.113-.02.233,1.224Z" transform="translate(-1434.45 -572.752)"/><path class="a" d="M1515.438,649.318c-.354,0-.815-.141-1.039.029-.463.354-1.111.875-1.109,1.325a2.5,2.5,0,0,0,1.006,1.526c.184.154.787-.193,1.2-.312l-.449-1.044.087-.2c.239.253.707.549.669.751-.077.417-.456,1.129-.654,1.11-.663-.062-1.581-.212-1.875-.668a2.492,2.492,0,0,1-.037-2.086C1513.644,648.9,1514.558,648.829,1515.438,649.318Z" transform="translate(-1462.301 -572.463)"/><path class="a" d="M1485.733,652.209c-.966.64-1.871.513-2.318-.236a2.752,2.752,0,0,1-.149-2.2c.4-.922,1.357-.989,2.42-.549a4.431,4.431,0,0,0-1.7.284,1.976,1.976,0,0,0-.706,1.361C1483.226,651.947,1484.072,652.4,1485.733,652.209Z" transform="translate(-1447.516 -572.438)"/><path class="a" d="M1511.384,524.825l-.071,0,.063-.027Z" transform="translate(-1461.455 -511.087)"/><path class="a" d="M1511.729,525.849l-.091-.058.015-.107A.414.414,0,0,1,1511.729,525.849Z" transform="translate(-1461.615 -511.524)"/><path class="a" d="M1512.209,526.948l-.041-.107.1-.048A.416.416,0,0,0,1512.209,526.948Z" transform="translate(-1461.878 -512.072)"/><path class="a" d="M1459.832,535.161l.035-.044Z" transform="translate(-1436.017 -516.185)"/></svg>