<svg xmlns="http://www.w3.org/2000/svg" width="108.242" height="55.512" viewBox="0 0 108.242 55.512"><defs><style>.a{fill:#0faaa9;}.b{fill:none;stroke:#056b67;stroke-miterlimit:10;}</style></defs><g transform="translate(0 0.289)"><g transform="translate(0 8.509)"><path class="a" d="M755.594,567.944v16.189c0,5.14-2.429,8.175-7.488,8.216-5.018,0-7.447-3.076-7.447-8.216v-2.753h4.088v2.753c0,1.5.243,4.169,3.359,4.169,3.2,0,3.359-2.833,3.359-4.29V568.066h-9.551v-4.088h13.68Z" transform="translate(-740.66 -551.585)"/><path class="a" d="M775.977,547.939v20.155c0,1.174.08,3.966,3.116,3.966s3.116-2.793,3.116-3.966V547.939h4.33v20.155c0,4.816-2.388,8.216-7.447,8.216s-7.447-3.44-7.447-8.216V547.939Z" transform="translate(-755.971 -543.66)"/><path class="a" d="M817.53,556.033h-3.238v-4.128h7.487v8.256c0,4.816-2.469,8.216-7.487,8.216-5.99,0-7.447-4.452-7.447-8.216V547.7c0-4.816,2.428-8.216,7.447-8.216,6.273,0,7.487,4.411,7.487,8.216v.486h-4.25V547.7c0-1.214-.041-4.128-3.238-4.128s-3.238,2.914-3.238,4.128v12.466c0,1.174.04,4.088,3.238,4.088s3.238-2.914,3.238-4.088Z" transform="translate(-773.363 -539.48)"/><path class="a" d="M852.689,568.365l-6.475-16.027v16.027h-4.25V540.52h4.25l6.475,16.31V540.52H856.9v27.845Z" transform="translate(-790.716 -539.994)"/><path class="a" d="M881.573,541.561v20.155c0,1.174.081,3.966,3.117,3.966s3.116-2.793,3.116-3.966V541.561h4.33v20.155c0,4.816-2.388,8.216-7.447,8.216s-7.447-3.44-7.447-8.216V541.561Z" transform="translate(-808.147 -540.508)"/></g><path class="b" d="M759.974,577.583c5.892-7.826,15.673-11.717,25.267-13.695,12.779-2.634,26-2.52,38.965-1.048,2.576.292,5.3.617,7.664-.452,2.833-1.282,4.453-4.238,5.919-6.981a306.249,306.249,0,0,1,20.249-32.745" transform="translate(-750.203 -522.661)"/></g></svg>