<svg xmlns="http://www.w3.org/2000/svg" width="101.178" height="42.055" viewBox="0 0 101.178 42.055"><defs><style>.a{fill:#0faaa9;}</style></defs><path class="a" d="M1809.475,548.983h-2V536.132c-.666.611-1.325,1.157-1.918,1.769-1.775,1.832-3.521,3.694-5.286,5.536a2.195,2.195,0,0,1-3.506.028c-2.25-2.339-4.463-4.714-6.688-7.076-.107-.113-.2-.239-.43-.522V549h-2.05v-.7q0-6.112,0-12.225c0-.981.1-1.936,1.152-2.354,1.083-.43,1.869.12,2.588.9,2.231,2.42,4.487,4.815,6.733,7.22.151.162.3.327.475.519l6.17-6.62c.427-.458.847-.924,1.278-1.379a2.033,2.033,0,0,1,2.3-.656,1.926,1.926,0,0,1,1.179,1.935c.025.379.009.761.009,1.141q0,5.676,0,11.352Z" transform="translate(-1726.698 -527.924)"/><path class="a" d="M1793.6,574.672c2.193,0,4.387-.062,6.577.019a3.741,3.741,0,0,1,3.476,3.264,6.567,6.567,0,0,1,.078.935c.006,2.395.016,4.789,0,7.184a3.936,3.936,0,0,1-4.221,4.185c-3.916,0-7.833.01-11.749,0a3.938,3.938,0,0,1-4.067-3.028,4.674,4.674,0,0,1-.1-1.064q-.011-3.726,0-7.452a3.775,3.775,0,0,1,3.763-4.039c2.076-.094,4.161-.02,6.242-.02Zm.039,1.5c-1.814,0-3.627-.005-5.441,0a2.256,2.256,0,0,0-2.441,2.418q-.013,3.8,0,7.591a2.28,2.28,0,0,0,2.5,2.5q5.407.019,10.815,0a2.247,2.247,0,0,0,2.437-2.424q.019-3.829,0-7.658a2.247,2.247,0,0,0-2.427-2.431C1797.263,576.166,1795.449,576.171,1793.635,576.171Z" transform="translate(-1724.72 -548.211)"/><path class="a" d="M1837.876,542.69v4.8h13.785v1.8c-.205.011-.42.031-.634.031q-6.682,0-13.365,0c-1.335,0-1.925-.588-1.926-1.92q0-5.709,0-11.417c0-1.207.561-1.817,1.739-1.82,4.612-.013,9.223-.006,13.834,0,.107,0,.214.021.355.035v1.768h-13.772v4.745h10.339v1.979Z" transform="translate(-1750.488 -528.217)"/><path class="a" d="M1832.618,590.127h-2.1v-.821q0-6.077,0-12.154a2.462,2.462,0,0,1,4.408-1.753c1.824,2.031,3.637,4.072,5.417,6.142,1.72,2,3.387,4.049,5.089,6.066a11.672,11.672,0,0,0,.9.869l.225-.028a5,5,0,0,0,.186-.95c.013-4.051.009-8.1.009-12.154v-.851h2.08c.011.175.035.368.035.562q.008,6.311.01,12.623a2.414,2.414,0,0,1-4.32,1.548c-.934-1.024-1.829-2.086-2.735-3.136-2.645-3.067-5.281-6.142-7.941-9.2a4.831,4.831,0,0,0-.992-.687,5.561,5.561,0,0,0-.259,1.172c-.02,3.984-.012,7.968-.012,11.953Z" transform="translate(-1747.91 -548.112)"/><path class="a" d="M1749.447,549.285h-2.127v-15.1h2.084v6.473c.323-.154.536-.245.739-.355,3.5-1.892,7.005-3.776,10.492-5.693a3.459,3.459,0,0,1,1.907-.473,20.1,20.1,0,0,1,2.529.161L1754,540.442l11.628,8.734c-1.4,0-2.767.451-4.106-.606-2.913-2.3-5.975-4.409-8.96-6.618a.737.737,0,0,0-1-.057,4.961,4.961,0,0,1-1.173.643c-.823.282-.987.833-.958,1.641C1749.49,545.855,1749.447,547.534,1749.447,549.285Z" transform="translate(-1706.801 -528.204)"/><path class="a" d="M1682.929,574.626v1.546h-.726c-3.469,0-6.939.007-10.408,0a2.209,2.209,0,0,0-2.191,1.367,2.335,2.335,0,0,0,.376,2.576,2.251,2.251,0,0,0,1.853.768c2.753-.01,5.506-.006,8.26,0a4.008,4.008,0,0,1,4.349,4.345,5.093,5.093,0,0,1-.862,3.5,3.919,3.919,0,0,1-3.15,1.529c-4.253.027-8.506.01-12.758.007a1.462,1.462,0,0,1-.238-.048v-1.538h.693q5.741,0,11.483,0a2.29,2.29,0,0,0,2.6-2.587c0-.313,0-.626,0-.94-.007-1.87-.839-2.716-2.692-2.72-2.708,0-5.417.007-8.126,0a4.193,4.193,0,0,1-3.991-2.747,3.892,3.892,0,0,1,3.423-4.973c.911-.085,1.833-.065,2.75-.068,2.843-.008,5.686,0,8.528,0Z" transform="translate(-1667.226 -548.211)"/><path class="a" d="M1725.862,590.018c-.793,0-1.487.038-2.171-.022a1,1,0,0,1-.619-.469q-1.626-2.661-3.2-5.355a.838.838,0,0,0-.845-.479q-4.095.025-8.19,0a.844.844,0,0,0-.849.475q-1.586,2.723-3.236,5.408a1.057,1.057,0,0,1-.711.423c-.642.06-1.294.02-2.054.02.149-.275.253-.484.373-.685,2.546-4.259,5.081-8.525,7.653-12.768a6.01,6.01,0,0,1,1.41-1.669,2.483,2.483,0,0,1,3.446.368,6.424,6.424,0,0,1,.807,1.067q3.983,6.6,7.946,13.219C1725.692,589.663,1725.744,589.784,1725.862,590.018Zm-7.239-7.9c-1.052-1.745-2.021-3.4-3.044-5.026-.459-.726-.894-.7-1.375.041-.511.786-.975,1.6-1.457,2.409-.5.833-.991,1.668-1.53,2.576Z" transform="translate(-1685.391 -548.081)"/><path class="a" d="M1723.751,548.852c-2.2.134-2.2.135-3.263-1.724-.478-.834-.967-1.663-1.424-2.508a.768.768,0,0,0-.774-.475q-4.8.027-9.6,0a.828.828,0,0,0-.828.51c-.706,1.271-1.418,2.539-2.17,3.781a1.055,1.055,0,0,1-.706.425,18.46,18.46,0,0,1-1.872.02c.137-.258.221-.432.319-.6q3.946-6.785,7.9-13.567c.74-1.269,1.712-1.738,2.883-1.282a2.558,2.558,0,0,1,1.206.987c2.808,4.755,5.571,9.538,8.346,14.313C1723.766,548.745,1723.756,548.771,1723.751,548.852Zm-6.052-6.662-4.217-7.266-4.22,7.266Z" transform="translate(-1684.956 -527.772)"/><path class="a" d="M1683.661,547.4v1.939h-.808l-13.628.007a1.539,1.539,0,0,1-1.644-1.636c-.027-1.253-.009-2.506-.009-3.759,0-3.221,0-6.443,0-9.719h2.218V547.4Z" transform="translate(-1667.394 -528.251)"/><path class="a" d="M1766.181,588.662v1.545h-.759q-5.539,0-11.076,0c-2.042,0-2.895-.858-2.9-2.9q0-5.974,0-11.949v-.751h2.173v.78q0,6.042,0,12.083c0,1.034.159,1.189,1.218,1.189h11.34Z" transform="translate(-1708.842 -548.204)"/><path class="a" d="M1841.024,525.571l-.241-1.706,11.507-1.453c.072.575.14,1.115.216,1.718Z" transform="translate(-1752.982 -522.412)"/></svg>