<svg xmlns="http://www.w3.org/2000/svg" width="101.178" height="51.153" viewBox="0 0 101.178 51.153"><defs><style>.a{fill:#0faaa9;}</style></defs><path class="a" d="M141.506,556.453c.108.226.193.419.291.607a46.256,46.256,0,0,1,2.608,6.7,50.654,50.654,0,0,0,3.318,8,14.432,14.432,0,0,0,3.258,4.345,5.478,5.478,0,0,0,3.645,1.409c.272,0,.543-.053.814-.078a1.6,1.6,0,0,0,1.351-1.144c.193-.461.33-.944.5-1.415a1.819,1.819,0,0,1,1.108-1.259.535.535,0,0,0,.158-.125,1.541,1.541,0,0,1,1.819-.316,1.6,1.6,0,0,1,.741,1.792,4.121,4.121,0,0,1-1.327,2.218,8.347,8.347,0,0,1-8.663,1.965,11.526,11.526,0,0,1-5.287-3.439,25.382,25.382,0,0,1-5.278-8.9c-1.061-3-1.944-6.066-2.906-9.1a6.924,6.924,0,0,1-.237-.748.425.425,0,0,0-.492-.388c-.209,0-.3.055-.348.264-.409,1.645-.835,3.286-1.25,4.929q-1,3.951-1.992,7.9c-.027.108-.044.219-.07.354a10.155,10.155,0,0,0,4.788-.233c-.077.394-.126.74-.223,1.073-.026.09-.19.172-.3.2-.229.053-.443.077-.47.386-.006.066-.148.152-.241.175a13.172,13.172,0,0,1-4.479.24,26.138,26.138,0,0,0-4.906-.239c-1.256.12-2.506.3-3.809.465.11-.4.211-.846.369-1.272.037-.1.27-.125.41-.189.109-.05.29-.089.308-.164.073-.309.329-.313.546-.382.574-.185,1.142-.391,1.726-.537a2.634,2.634,0,0,0,1.649-1.371,13.055,13.055,0,0,0,1.274-3.553q1.869-7.522,3.742-15.042c.164-.662.29-1.335.4-2.008a.853.853,0,0,0-.838-1.108c-.236-.033-.474-.047-.744-.072.1-.355.175-.708.3-1.043.029-.079.214-.141.327-.141.246,0,.409-.051.464-.328a.34.34,0,0,1,.251-.2,28.918,28.918,0,0,0,6.055-.947c-.138.519-.268.992-.39,1.468q-.99,3.886-1.978,7.773c-.1.4-.2.793-.309,1.188-.046.167-.046.285.169.32a8.365,8.365,0,0,0,5.794-.809,6.577,6.577,0,0,0,1.968-2.012,6.924,6.924,0,0,0,1.266-4.685,5.239,5.239,0,0,0-3.8-4.623,10.54,10.54,0,0,0-4.624-.422,18.054,18.054,0,0,0-8.5,3.044,11.524,11.524,0,0,0-3.576,3.891,10.95,10.95,0,0,0-1.575,5.41,5.49,5.49,0,0,0,1.914,4.285,15.313,15.313,0,0,1,1.242,1.215,1.25,1.25,0,0,1,.222,1.436,2.9,2.9,0,0,1-1.76,1.361,2.018,2.018,0,0,1-1.912-.6,6.13,6.13,0,0,1-1.748-2.846,12.288,12.288,0,0,1,.159-7.724,14.524,14.524,0,0,1,5.972-7.661,26.514,26.514,0,0,1,4.8-2.652,20.273,20.273,0,0,1,6.292-1.452,18.4,18.4,0,0,1,6.855.683,8.608,8.608,0,0,1,3.9,2.282,5.389,5.389,0,0,1,1.4,3.476,7.861,7.861,0,0,1-2.338,5.964,14.313,14.313,0,0,1-7.35,4.285C141.82,556.36,141.683,556.4,141.506,556.453Z" transform="translate(-121.721 -534.17)"/><path class="a" d="M220.6,564.005l-.841-1.206c.807-.549,1.586-1.1,2.386-1.62q2.062-1.336,4.148-2.634a3.8,3.8,0,0,1,.951-.358,1.15,1.15,0,0,1,1.258.4,16.564,16.564,0,0,1,2.3,3.622,33.46,33.46,0,0,1,2.594,7.6,28.333,28.333,0,0,1,.685,6.742c0,.1,0,.194,0,.386a1.88,1.88,0,0,0,.171-.22,38.973,38.973,0,0,0,3.034-7.773,12.065,12.065,0,0,0-.142-6.635,8.883,8.883,0,0,1-.319-2.016,1.577,1.577,0,0,1,1.032-1.614.725.725,0,0,0,.223-.148,1.82,1.82,0,0,1,2.942.648,5.139,5.139,0,0,1,.255,2.522,36.528,36.528,0,0,1-2.616,10.558,65.164,65.164,0,0,1-6.727,12.511,26.371,26.371,0,0,1-5.894,6.359,16.108,16.108,0,0,1-5.106,2.83,8.483,8.483,0,0,1-4.443.3,3.422,3.422,0,0,1-1.3-.631,1.7,1.7,0,0,1,.364-2.945,1.757,1.757,0,0,0,.372-.231,3.024,3.024,0,0,1,2.553-.557c1.136.162,2.261.4,3.393.588a4.216,4.216,0,0,0,3.347-.871,13.487,13.487,0,0,0,4.526-6.042,11.578,11.578,0,0,0,.564-4.846,49.22,49.22,0,0,0-1.483-9.224,17.72,17.72,0,0,0-2.267-5.461,8.086,8.086,0,0,0-1.088-1.3,1.8,1.8,0,0,0-1.876-.4,8.467,8.467,0,0,0-2.607,1.389C220.872,563.816,220.752,563.9,220.6,564.005Z" transform="translate(-167.565 -543.287)"/><path class="a" d="M184.255,574.37a17.735,17.735,0,0,1,6.21-13.159,11.519,11.519,0,0,1,5.618-2.8,7.732,7.732,0,0,1,3.586.053,5.727,5.727,0,0,1,3.609,3.4,10.753,10.753,0,0,1,.7,5.159,15.376,15.376,0,0,1-4.281,9.591,17.462,17.462,0,0,1-5.529,4.157,8.22,8.22,0,0,1-5.037.651,5.79,5.79,0,0,1-4.7-5.039C184.325,575.647,184.3,574.906,184.255,574.37Zm14.562-6.4c-.083-.974-.134-1.953-.258-2.922a6.017,6.017,0,0,0-1.345-3.3,2.99,2.99,0,0,0-4.394-.089,11.725,11.725,0,0,0-2.6,4.514,20.321,20.321,0,0,0-.678,7.8,7.643,7.643,0,0,0,1.276,3.7,2.817,2.817,0,0,0,2.174,1.306,2.776,2.776,0,0,0,2.118-.575,9.2,9.2,0,0,0,2.1-2.92A17.673,17.673,0,0,0,198.817,567.966Z" transform="translate(-152.62 -543.382)"/><path class="a" d="M281.267,559.51l.868.935c-.607.578-1.179,1.146-1.776,1.687a30.935,30.935,0,0,1-5.444,3.986,6.382,6.382,0,0,1-2.729.916,1.8,1.8,0,0,1-2.055-1.749,12.926,12.926,0,0,1,.161-2.613c.594-3.771,1.612-7.449,2.513-11.152q1.158-4.76,2.367-9.509A31.937,31.937,0,0,1,277,536.405a11.786,11.786,0,0,1,4.322-4.993,17,17,0,0,1,3.221-1.772,11.156,11.156,0,0,1,4.55-.74,2.184,2.184,0,0,1,1.375.533,1.74,1.74,0,0,1-.172,2.786c-.224.153-.441.317-.655.484a2.3,2.3,0,0,1-1.6.478c-.872-.059-1.737-.221-2.609-.29-.893-.071-1.79-.092-2.685-.116a.786.786,0,0,0-.718.48,12.387,12.387,0,0,0-1.182,3.3q-1.982,8.1-3.917,16.219c-.759,3.187-1.477,6.384-2.211,9.577a2.231,2.231,0,0,0-.058.4c-.033.763.365,1.1,1.071.8a8.618,8.618,0,0,0,1.829-1.037c.833-.631,1.586-1.366,2.391-2.036C280.354,560.144,280.794,559.855,281.267,559.51Z" transform="translate(-195.046 -528.886)"/><path class="a" d="M305.17,574.668l.954.951q-.444.419-.885.837a35.52,35.52,0,0,1-4.885,3.937,6.517,6.517,0,0,1-2.372,1.013A1.93,1.93,0,0,1,295.5,579.4a17.327,17.327,0,0,1,.572-4.013c.806-3.646,1.876-7.22,2.952-10.793a19.608,19.608,0,0,0,.567-2.208c.109-.615-.191-.825-.81-.686a2.515,2.515,0,0,0-1.154.692c-.358.333-.707.678-1.075,1-.521.456-1.056.9-1.616,1.368l-1.114-.9c.514-.528,1-1.052,1.511-1.546a18.985,18.985,0,0,1,5.235-3.66,5.43,5.43,0,0,1,2.805-.59,1.28,1.28,0,0,1,1.274,1.709c-.536,2.092-1.131,4.169-1.688,6.255q-1.236,4.628-2.447,9.263a10.134,10.134,0,0,0-.228,1.447,1.683,1.683,0,0,0,.053.673.61.61,0,0,0,.982.4,4.7,4.7,0,0,0,.76-.572c.526-.453,1.03-.932,1.563-1.377C304.14,575.451,304.66,575.066,305.17,574.668Z" transform="translate(-206.76 -543.296)"/><path class="a" d="M311.561,538.951a2.656,2.656,0,0,1,1.519-2.234,4.889,4.889,0,0,0,.413-.3,2.154,2.154,0,0,1,2.226-.273,1.815,1.815,0,0,1,.934,2.114,3.7,3.7,0,0,1-.459,1.16,4.475,4.475,0,0,1-2.009,1.636C312.835,541.7,311.545,540.769,311.561,538.951Z" transform="translate(-215.523 -532.375)"/></svg>