<svg xmlns="http://www.w3.org/2000/svg" width="126.473" height="19.203" viewBox="0 0 126.473 19.203"><defs><style>.a{fill:#0faaa9;}</style></defs><path class="a" d="M1220.39,565.269c.543-1.313,1.036-2.515,1.538-3.714.468-1.12.473-1.118,1.673-1.119h7.224c-.149.505-.282.957-.416,1.407l-.183,0-.227-1.26a6.393,6.393,0,0,0-.536.638q-2.791,4.62-5.558,9.254a2.087,2.087,0,0,0-.25,1.009c-.021,2.359-.011,4.719-.011,7.079v.823h-6.469c-.013-.267-.036-.519-.036-.77,0-2.288.023-4.577-.021-6.864a3.334,3.334,0,0,0-.419-1.528c-.863-1.509-1.8-2.975-2.711-4.455-.121-.2-.256-.383-.513-.764,0,.745.009,1.278,0,1.81-.042,2.094.075,4.208-.175,6.279a6.721,6.721,0,0,1-5.411,6.018,11.243,11.243,0,0,1-5.937-.054,6.961,6.961,0,0,1-4.717-4.026,10.583,10.583,0,0,1-9.2,4.38,9.66,9.66,0,0,1-8.657-5.1c-.217.154-.407.282-.59.421-.165.125-.323.261-.532.433l4.4,4.225c-.393.023-.617.047-.842.047-1.93,0-3.862-.031-5.791.019a1.725,1.725,0,0,1-1.632-.755,9.823,9.823,0,0,0-.774-.883c-4.116,2.147-8.092,2.362-12.016-.571v2.146h-6.619v-18.9h6.624v9.973l3.224-1.535c-.1-.119-.263-.3-.424-.487a4.313,4.313,0,0,1,.6-6.421,8.728,8.728,0,0,1,10.2.3,4.527,4.527,0,0,1-1.159,7.465c-.25.129-.507.244-.823.4l1.78,1.536,2.667-2.644.676.82a24.417,24.417,0,0,1,.549-2.929c1.207-3.826,3.991-5.817,7.837-6.373a11.748,11.748,0,0,1,9.784,2.876v-3.03h6.713v.827q0,4.755,0,9.51c0,.286.007.573.031.856.1,1.149.587,1.651,1.626,1.688a1.571,1.571,0,0,0,1.884-1.574,7.063,7.063,0,0,0,.055-1q.006-4.719,0-9.438v-.827c.253-.016.459-.042.665-.042,3.384,0,6.769.01,10.154-.014a.8.8,0,0,1,.89.586c.469,1.2.994,2.373,1.5,3.555C1220.134,564.773,1220.243,564.971,1220.39,565.269Zm-28.935,2.149c-1.8-1.864-4.105-1.848-5.42.072a4.578,4.578,0,0,0-.365,4.82,3.235,3.235,0,0,0,4.494,1.467,6.685,6.685,0,0,0,1.127-.96l-.131-.233h-2.828v-4.341h8.182v-2.679Zm-23.772,4.753c-.823.493-1.126,1-.948,1.634a1.474,1.474,0,0,0,1.679,1,11.034,11.034,0,0,0,1.539-.369Zm3.7-6.588a1.056,1.056,0,0,0-1.013-1.07,1.169,1.169,0,0,0-1.107,1.1c-.026.513.548,1.415.9,1.422C1170.59,567.042,1171.377,566.1,1171.387,565.583Z" transform="translate(-1106.069 -560.283)"/><path class="a" d="M1106.433,579.436c-2.057,0-4.056.015-6.052-.024-.2,0-.45-.309-.577-.531-1.706-2.977-3.394-5.964-5.087-8.948-.137-.241-.279-.479-.371-.636v10.1h-6.181v-3.807c-.3.318-.461.488-.62.663-4.034,4.435-12.5,4.153-16.106-.562a9.47,9.47,0,0,1-1.564-8.013c.056-.278.141-.55.236-.918l-1.544-.069V579.38h-6.68V566.74h-3.6V560.5h13.93v2.887a10.817,10.817,0,0,1,8.152-2.846,10.218,10.218,0,0,1,7.738,3.882v-3.98h1.333c1.478,0,2.956.018,4.434-.011a.985.985,0,0,1,1.01.564c1.778,3.073,3.589,6.127,5.39,9.186.068.116.144.227.145.229-.135-3.232-.274-6.556-.414-9.929h6.428Zm-23.31-9.33a3.413,3.413,0,1,0-3.42,3.5A3.351,3.351,0,0,0,1083.123,570.106Z" transform="translate(-1058.287 -560.285)"/><path class="a" d="M1306.587,561.663l-.13-.6-.4.68-.351-.533-.28.464-.144-.023c-.019-.408-.038-.817-.07-1.5l.861.6.694-.6v1.51Z" transform="translate(-1180.296 -560.146)"/></svg>