<svg xmlns="http://www.w3.org/2000/svg" width="15.53" height="18.642" viewBox="0 0 15.53 18.642"><defs><style>.a{fill:#16213d;}</style></defs><g transform="translate(-107.296 -577.33)"><path class="a" d="M108.46,583.547a1.164,1.164,0,0,0-1.164,1.165v5.436a1.165,1.165,0,0,0,2.329,0v-5.436A1.164,1.164,0,0,0,108.46,583.547Z"/><path class="a" d="M121.662,583.547a1.164,1.164,0,0,0-1.165,1.165v5.436a1.164,1.164,0,0,0,2.329,0v-5.436A1.164,1.164,0,0,0,121.662,583.547Z"/><path class="a" d="M119.332,583.547H110.79a.388.388,0,0,0-.388.388v6.213a1.941,1.941,0,0,0,1.553,1.9v2.757a1.164,1.164,0,1,0,2.329,0v-2.718h1.554v2.718a1.165,1.165,0,1,0,2.329,0V592.05a1.941,1.941,0,0,0,1.553-1.9v-6.213A.388.388,0,0,0,119.332,583.547Z"/><path class="a" d="M117.884,578.944l.946-.946a.388.388,0,1,0-.539-.559l-.01.01-1.1,1.1a5.321,5.321,0,0,0-4.235,0l-1.1-1.1a.388.388,0,0,0-.549.549l.946.947a4.1,4.1,0,0,0-1.836,3.438.388.388,0,0,0,.388.388h8.542a.388.388,0,0,0,.388-.388A4.1,4.1,0,0,0,117.884,578.944Z"/></g></svg>